<svg width="100" height="68" viewBox="0 0 100 68" fill="none" xmlns="http://www.w3.org/2000/svg">
<circle cx="22" cy="34" r="19.5" fill="#333333" stroke="#D6D6D6"/>
<circle cx="22" cy="34" r="19.5" fill="url(#paint0_radial_793_125)" fill-opacity="0.2" stroke="#D6D6D6"/>
<path d="M45 15H64C74.4934 15 83 23.5066 83 34V34C83 44.4934 74.4934 53 64 53H45V15Z" fill="#333333"/>
<path d="M64 14.5C74.7696 14.5 83.5 23.2304 83.5 34C83.5 44.7696 74.7696 53.5 64 53.5H44.5V14.5H64Z" fill="url(#paint1_radial_793_125)" fill-opacity="0.2" stroke="#D6D6D6"/>
<path d="M57 28.4286C57 27.6396 57.6396 27 58.4286 27H60C63.866 27 67 30.134 67 34V34C67 37.866 63.866 41 60 41H58.4286C57.6396 41 57 40.3604 57 39.5714V28.4286Z" fill="#FF883D"/>
<mask id="path-6-outside-1_793_125" maskUnits="userSpaceOnUse" x="81.334" y="13.2236" width="17" height="41" fill="black">
<rect fill="white" x="81.334" y="13.2236" width="17" height="41"/>
<path d="M90.9844 14.5127C91.5672 14.1601 92.2576 14.1406 92.8355 14.399C93.4009 14.6517 93.9622 15 94.5816 15H95.001C96.1054 15.0002 97.001 15.8955 97.001 17V20.3049C97.001 20.5424 97.0537 20.7763 97.0948 21.0102C97.1355 21.242 97.1342 21.4771 97.0937 21.7049C97.0525 21.9366 97.001 22.1683 97.001 22.4035V51C97.001 52.1045 96.1054 52.9998 95.001 53H89.001C87.8964 53 87.001 52.1046 87.001 51V29.5554C87.001 28.6203 86.2125 27.8421 85.7285 27.042L82.623 21.9082C82.0516 20.9632 82.354 19.7338 83.2988 19.1621L86.0833 17.477C86.6581 17.1292 86.9594 16.4695 87.3268 15.907C87.6834 15.3609 88.2998 15 89.001 15H89.6209C89.9858 15 90.3438 14.9002 90.656 14.7113L90.9844 14.5127Z"/>
</mask>
<path d="M90.9844 14.5127C91.5672 14.1601 92.2576 14.1406 92.8355 14.399C93.4009 14.6517 93.9622 15 94.5816 15H95.001C96.1054 15.0002 97.001 15.8955 97.001 17V20.3049C97.001 20.5424 97.0537 20.7763 97.0948 21.0102C97.1355 21.242 97.1342 21.4771 97.0937 21.7049C97.0525 21.9366 97.001 22.1683 97.001 22.4035V51C97.001 52.1045 96.1054 52.9998 95.001 53H89.001C87.8964 53 87.001 52.1046 87.001 51V29.5554C87.001 28.6203 86.2125 27.8421 85.7285 27.042L82.623 21.9082C82.0516 20.9632 82.354 19.7338 83.2988 19.1621L86.0833 17.477C86.6581 17.1292 86.9594 16.4695 87.3268 15.907C87.6834 15.3609 88.2998 15 89.001 15H89.6209C89.9858 15 90.3438 14.9002 90.656 14.7113L90.9844 14.5127Z" fill="#333333"/>
<path d="M90.9844 14.5127L91.5019 15.3684L91.502 15.3683L90.9844 14.5127ZM95.001 15L95.0011 14H95.001V15ZM97.001 51L98.001 51V51H97.001ZM95.001 53V54H95.0011L95.001 53ZM87.001 51H86.001V51L87.001 51ZM85.7285 27.042L84.8729 27.5596L84.8729 27.5596L85.7285 27.042ZM82.623 21.9082L81.7673 22.4256L81.7674 22.4258L82.623 21.9082ZM83.2988 19.1621L83.8165 20.0177L83.8166 20.0176L83.2988 19.1621ZM97.0937 21.7049L98.0782 21.88L97.0937 21.7049ZM97.0948 21.0102L98.0797 20.8372L97.0948 21.0102ZM92.8355 14.399L92.4274 15.3119L92.8355 14.399ZM90.9844 14.5127L91.502 15.3683C91.7922 15.1927 92.1358 15.1815 92.4274 15.3119L92.8355 14.399L93.2437 13.486C92.3795 13.0997 91.3421 13.1276 90.4668 13.6571L90.9844 14.5127ZM94.5816 15V16H95.001V15V14H94.5816V15ZM95.001 15L95.0008 16C95.5532 16.0001 96.001 16.4479 96.001 17H97.001H98.001C98.001 15.3431 96.6576 14.0002 95.0011 14L95.001 15ZM97.001 17H96.001V20.3049H97.001H98.001V17H97.001ZM97.0948 21.0102L96.1099 21.1832C96.13 21.2978 96.1295 21.4151 96.1091 21.5299L97.0937 21.7049L98.0782 21.88C98.1388 21.5392 98.141 21.1863 98.0797 20.8372L97.0948 21.0102ZM97.001 22.4035H96.001V51H97.001H98.001V22.4035H97.001ZM97.001 51L96.001 51C96.001 51.5521 95.5532 51.9999 95.0008 52L95.001 53L95.0011 54C96.6576 53.9998 98.0009 52.6569 98.001 51L97.001 51ZM95.001 53V52H89.001V53V54H95.001V53ZM89.001 53V52C88.4487 52 88.001 51.5523 88.001 51L87.001 51L86.001 51C86.001 52.6568 87.3441 54 89.001 54V53ZM87.001 51H88.001V29.5554H87.001H86.001V51H87.001ZM85.7285 27.042L86.5842 26.5244L83.4787 21.3906L82.623 21.9082L81.7674 22.4258L84.8729 27.5596L85.7285 27.042ZM82.623 21.9082L83.4788 21.3908C83.193 20.9181 83.3443 20.3034 83.8165 20.0177L83.2988 19.1621L82.7811 18.3066C81.3637 19.1643 80.9103 21.0084 81.7673 22.4256L82.623 21.9082ZM83.2988 19.1621L83.8166 20.0176L86.601 18.3326L86.0833 17.477L85.5656 16.6215L82.7811 18.3066L83.2988 19.1621ZM87.3268 15.907L88.164 16.4538C88.3439 16.1784 88.6516 16 89.001 16V15V14C87.9479 14 87.023 14.5434 86.4895 15.3602L87.3268 15.907ZM89.001 15V16H89.6209V15V14H89.001V15ZM90.656 14.7113L91.1735 15.567L91.5019 15.3684L90.9844 14.5127L90.4668 13.657L90.1385 13.8557L90.656 14.7113ZM87.001 29.5554H88.001C88.001 28.8052 87.6844 28.1815 87.3938 27.7174C87.2466 27.4822 87.0842 27.2553 86.9471 27.062C86.8027 26.8586 86.6834 26.6885 86.5841 26.5244L85.7285 27.042L84.8729 27.5596C85.0156 27.7955 85.1764 28.0227 85.316 28.2195C85.4628 28.4264 85.5883 28.6025 85.6987 28.7787C85.9233 29.1375 86.001 29.3705 86.001 29.5554H87.001ZM89.6209 15V16C90.1683 16 90.7052 15.8503 91.1735 15.567L90.656 14.7113L90.1385 13.8557C89.9823 13.9501 89.8034 14 89.6209 14V15ZM97.0937 21.7049L96.1091 21.5299C96.0788 21.7002 96.001 22.0544 96.001 22.4035H97.001H98.001C98.001 22.2821 98.0262 22.1729 98.0782 21.88L97.0937 21.7049ZM86.0833 17.477L86.601 18.3326C87.0612 18.0541 87.3759 17.6724 87.6048 17.342C87.72 17.1758 87.8235 17.0073 87.9131 16.8597C88.0073 16.7045 88.0837 16.5768 88.164 16.4538L87.3268 15.907L86.4895 15.3602C86.3862 15.5184 86.2871 15.6841 86.2036 15.8217C86.1154 15.9669 86.0388 16.0905 85.9608 16.203C85.8035 16.43 85.6801 16.5522 85.5656 16.6215L86.0833 17.477ZM97.001 20.3049H96.001C96.001 20.6559 96.0806 21.0164 96.1099 21.1832L97.0948 21.0102L98.0797 20.8372C98.0268 20.5362 98.001 20.429 98.001 20.3049H97.001ZM92.8355 14.399L92.4274 15.3119C92.5522 15.3677 92.6749 15.4279 92.8264 15.5007C92.9701 15.5698 93.1349 15.6479 93.3079 15.7191C93.6518 15.8606 94.0858 16 94.5816 16V15V14C94.4581 14 94.3017 13.9653 94.0688 13.8695C93.9533 13.822 93.833 13.7656 93.6932 13.6983C93.561 13.6348 93.4015 13.5566 93.2437 13.486L92.8355 14.399Z" fill="#D6D6D6" mask="url(#path-6-outside-1_793_125)"/>
<mask id="path-8-outside-2_793_125" maskUnits="userSpaceOnUse" x="80.5859" y="13.2236" width="18" height="41" fill="black">
<rect fill="white" x="80.5859" y="13.2236" width="18" height="41"/>
<path d="M90.9834 14.5127C91.5663 14.1601 92.257 14.1402 92.835 14.3984C93.4009 14.6512 93.9626 15 94.5824 15H94.999C96.1036 15 96.999 15.8954 96.999 17V20.305C96.999 20.5425 97.0517 20.7763 97.0929 21.0101C97.1338 21.2422 97.1327 21.4777 97.0922 21.7058C97.0509 21.9382 96.999 22.1706 96.999 22.4067V51C96.9988 52.1044 96.1035 53 94.999 53H88.999C87.8946 53 86.9992 52.1044 86.999 51V29.5552C86.999 28.6202 86.2116 27.842 85.7275 27.042L82.6211 21.9082C82.0495 20.9631 82.3528 19.7338 83.2979 19.1621L86.0821 17.4772C86.657 17.1293 86.9583 16.4694 87.3256 15.9067C87.682 15.3607 88.2979 15 88.999 15H89.6199C89.9848 15 90.3428 14.9002 90.655 14.7113L90.9834 14.5127Z"/>
</mask>
<path d="M90.9834 14.5127C91.5663 14.1601 92.257 14.1402 92.835 14.3984C93.4009 14.6512 93.9626 15 94.5824 15H94.999C96.1036 15 96.999 15.8954 96.999 17V20.305C96.999 20.5425 97.0517 20.7763 97.0929 21.0101C97.1338 21.2422 97.1327 21.4777 97.0922 21.7058C97.0509 21.9382 96.999 22.1706 96.999 22.4067V51C96.9988 52.1044 96.1035 53 94.999 53H88.999C87.8946 53 86.9992 52.1044 86.999 51V29.5552C86.999 28.6202 86.2116 27.842 85.7275 27.042L82.6211 21.9082C82.0495 20.9631 82.3528 19.7338 83.2979 19.1621L86.0821 17.4772C86.657 17.1293 86.9583 16.4694 87.3256 15.9067C87.682 15.3607 88.2979 15 88.999 15H89.6199C89.9848 15 90.3428 14.9002 90.655 14.7113L90.9834 14.5127Z" fill="url(#paint2_radial_793_125)" fill-opacity="0.2"/>
<path d="M90.9834 14.5127L91.5009 15.3684L91.501 15.3683L90.9834 14.5127ZM96.999 51L97.999 51.0002V51H96.999ZM88.999 53L88.999 54H88.999V53ZM86.999 51H85.999V51.0002L86.999 51ZM85.7275 27.042L84.872 27.5597L84.872 27.5597L85.7275 27.042ZM82.6211 21.9082L81.7654 22.4257L81.7655 22.4259L82.6211 21.9082ZM83.2979 19.1621L83.8155 20.0177L83.8156 20.0176L83.2979 19.1621ZM88.999 15V14H88.999L88.999 15ZM97.0922 21.7058L96.1076 21.5309L97.0922 21.7058ZM97.0929 21.0101L96.1081 21.1837L97.0929 21.0101ZM92.835 14.3984L92.4271 15.3114L92.835 14.3984ZM90.9834 14.5127L91.501 15.3683C91.7917 15.1925 92.1357 15.1812 92.4271 15.3114L92.835 14.3984L93.2429 13.4853C92.3784 13.0991 91.3409 13.1277 90.4658 13.6571L90.9834 14.5127ZM94.5824 15V16H94.999V15V14H94.5824V15ZM94.999 15V16C95.5513 16 95.999 16.4477 95.999 17H96.999H97.999C97.999 15.3431 96.6559 14 94.999 14V15ZM96.999 17H95.999V20.305H96.999H97.999V17H96.999ZM97.0929 21.0101L96.1081 21.1837C96.1284 21.2988 96.128 21.4163 96.1076 21.5309L97.0922 21.7058L98.0768 21.8807C98.1374 21.5391 98.1393 21.1857 98.0777 20.8365L97.0929 21.0101ZM96.999 22.4067H95.999V51H96.999H97.999V22.4067H96.999ZM96.999 51L95.999 50.9998C95.9989 51.5523 95.551 52 94.999 52V53V54C96.6559 54 97.9987 52.6565 97.999 51.0002L96.999 51ZM94.999 53V52H88.999V53V54H94.999V53ZM88.999 53L88.999 52C88.4471 52 87.9991 51.5522 87.999 50.9998L86.999 51L85.999 51.0002C85.9993 52.6565 87.3421 54 88.999 54L88.999 53ZM86.999 51H87.999V29.5552H86.999H85.999V51H86.999ZM85.7275 27.042L86.5831 26.5243L83.4767 21.3905L82.6211 21.9082L81.7655 22.4259L84.872 27.5597L85.7275 27.042ZM82.6211 21.9082L83.4768 21.3907C83.1913 20.9187 83.3425 20.3039 83.8155 20.0177L83.2979 19.1621L82.7802 18.3065C81.3632 19.1637 80.9078 21.0076 81.7654 22.4257L82.6211 21.9082ZM83.2979 19.1621L83.8156 20.0176L86.5999 18.3327L86.0821 17.4772L85.5644 16.6216L82.7801 18.3066L83.2979 19.1621ZM87.3256 15.9067L88.163 16.4533C88.3425 16.1782 88.6497 16 88.999 16L88.999 15L88.999 14C87.946 14 87.0214 14.5432 86.4882 15.3601L87.3256 15.9067ZM88.999 15V16H89.6199V15V14H88.999V15ZM90.655 14.7113L91.1726 15.567L91.5009 15.3684L90.9834 14.5127L90.4659 13.657L90.1375 13.8557L90.655 14.7113ZM86.999 29.5552H87.999C87.999 28.8054 87.683 28.1819 87.3926 27.7176C87.2454 27.4824 87.0832 27.2555 86.9461 27.0622C86.8018 26.8587 86.6825 26.6885 86.5831 26.5243L85.7275 27.042L84.872 27.5597C85.0146 27.7954 85.1753 28.0225 85.3147 28.2192C85.4614 28.426 85.5868 28.6021 85.697 28.7783C85.9213 29.1369 85.999 29.3701 85.999 29.5552H86.999ZM89.6199 15V16C90.1673 16 90.7042 15.8503 91.1726 15.567L90.655 14.7113L90.1375 13.8557C89.9814 13.9501 89.8024 14 89.6199 14V15ZM97.0922 21.7058L96.1076 21.5309C96.0774 21.7009 95.999 22.0567 95.999 22.4067H96.999H97.999C97.999 22.2846 98.0244 22.1755 98.0768 21.8807L97.0922 21.7058ZM86.0821 17.4772L86.5999 18.3327C87.0602 18.0541 87.3749 17.6724 87.6038 17.3418C87.7189 17.1756 87.8225 17.007 87.912 16.8594C88.0063 16.7041 88.0826 16.5764 88.163 16.4533L87.3256 15.9067L86.4882 15.3601C86.3849 15.5183 86.2858 15.6841 86.2023 15.8217C86.1142 15.967 86.0376 16.0906 85.9596 16.2031C85.8024 16.4301 85.679 16.5523 85.5644 16.6216L86.0821 17.4772ZM96.999 20.305H95.999C95.999 20.6562 96.0785 21.016 96.1081 21.1837L97.0929 21.0101L98.0777 20.8365C98.0248 20.5365 97.999 20.4288 97.999 20.305H96.999ZM92.835 14.3984L92.4271 15.3114C92.5519 15.3672 92.6747 15.4274 92.8262 15.5002C92.97 15.5694 93.1348 15.6475 93.3079 15.7187C93.652 15.8603 94.0862 16 94.5824 16V15V14C94.4588 14 94.3023 13.9652 94.0691 13.8693C93.9535 13.8217 93.8331 13.7652 93.693 13.6978C93.5607 13.6342 93.401 13.556 93.2429 13.4853L92.835 14.3984Z" fill="#D6D6D6" mask="url(#path-8-outside-2_793_125)"/>
<defs>
<radialGradient id="paint0_radial_793_125" cx="0" cy="0" r="1" gradientTransform="matrix(47.5479 20.5833 -2.3951 23.7739 24.387 11.0417)" gradientUnits="userSpaceOnUse">
<stop stop-color="white"/>
<stop offset="1" stop-color="white" stop-opacity="0"/>
</radialGradient>
<radialGradient id="paint1_radial_793_125" cx="0" cy="0" r="1" gradientTransform="matrix(47.5479 20.5833 -2.3951 23.7739 66.387 11.0417)" gradientUnits="userSpaceOnUse">
<stop stop-color="white"/>
<stop offset="1" stop-color="white" stop-opacity="0"/>
</radialGradient>
<radialGradient id="paint2_radial_793_125" cx="0" cy="0" r="1" gradientTransform="matrix(19.4411 21.0038 -0.97929 24.2595 90.3305 10.1844)" gradientUnits="userSpaceOnUse">
<stop stop-color="white"/>
<stop offset="1" stop-color="white" stop-opacity="0"/>
</radialGradient>
</defs>
</svg>
