<svg width="247" height="30" viewBox="0 0 247 30" fill="none" xmlns="http://www.w3.org/2000/svg">
<circle cx="10.5" cy="15.5" r="9.5" fill="#333333"/>
<circle cx="10.5" cy="15.5" r="9.5" fill="url(#paint0_radial_785_8)" fill-opacity="0.2"/>
<path d="M22 6H31.5C36.7467 6 41 10.2533 41 15.5V15.5C41 20.7467 36.7467 25 31.5 25H22V6Z" fill="#333333"/>
<rect x="22" y="6" width="19" height="19" fill="url(#paint1_radial_785_8)" fill-opacity="0.2"/>
<path d="M28 12.7143C28 12.3198 28.3198 12 28.7143 12H29.5C31.433 12 33 13.567 33 15.5V15.5C33 17.433 31.433 19 29.5 19H28.7143C28.3198 19 28 18.6802 28 18.2857V12.7143Z" fill="#FF883D"/>
<path d="M44.8779 6.00537C45.0519 5.97973 45.2271 5.98051 45.3994 6.00049H45.999C47.1036 6.00049 47.999 6.89592 47.999 8.00049V23.0005C47.9988 24.1049 47.1034 25.0005 45.999 25.0005H44.999C43.8946 25.0005 42.9993 24.1049 42.999 23.0005V13.535C42.999 12.6542 42.3016 11.9191 41.8457 11.1655L41.3281 10.3101C40.7564 9.36503 41.059 8.13575 42.0039 7.56396L42.2467 7.41698C43.1055 6.89697 43.8757 6.06528 44.8779 6.00537Z" fill="#333333"/>
<path d="M44.8779 6.00537C45.0519 5.97973 45.2271 5.98051 45.3994 6.00049H45.999C47.1036 6.00049 47.999 6.89592 47.999 8.00049V23.0005C47.9988 24.1049 47.1034 25.0005 45.999 25.0005H42.999V12.0483C42.5341 11.9133 42.1161 11.6124 41.8457 11.1655L40.293 8.59912L43.541 6.6333C43.8801 6.27172 44.351 6.03687 44.8779 6.00537Z" fill="url(#paint2_radial_785_8)" fill-opacity="0.2"/>
<path d="M55.5205 22V9.31738H58.1748V14.4678H63.8877V9.31738H66.542V22H63.8877V16.6562H58.1748V22H55.5205ZM74.1182 22.3164C73.1104 22.3164 72.2344 22.167 71.4902 21.8682C70.7461 21.5635 70.1602 21.1357 69.7324 20.585C69.3047 20.0283 69.0645 19.3721 69.0117 18.6162L69.0029 18.4844H71.5693L71.5781 18.5635C71.6133 18.8857 71.7422 19.167 71.9648 19.4072C72.1934 19.6416 72.498 19.8262 72.8789 19.9609C73.2598 20.0957 73.6963 20.1631 74.1885 20.1631C74.6631 20.1631 75.0791 20.0928 75.4365 19.9521C75.7939 19.8115 76.0723 19.6182 76.2715 19.3721C76.4766 19.1201 76.5791 18.833 76.5791 18.5107V18.502C76.5791 18.0859 76.4092 17.752 76.0693 17.5C75.7354 17.248 75.1729 17.04 74.3818 16.876L73.0459 16.6035C71.7334 16.334 70.7754 15.8945 70.1719 15.2852C69.5742 14.6699 69.2754 13.8789 69.2754 12.9121V12.9033C69.2754 12.1182 69.4834 11.4326 69.8994 10.8467C70.3154 10.2607 70.8867 9.80664 71.6133 9.48438C72.3398 9.16211 73.1719 9.00098 74.1094 9.00098C75.0938 9.00098 75.9375 9.15918 76.6406 9.47559C77.3496 9.79199 77.9033 10.2285 78.3018 10.7852C78.7002 11.3418 78.9258 11.9746 78.9785 12.6836L78.9873 12.7979H76.4824L76.4648 12.6924C76.418 12.3877 76.292 12.1211 76.0869 11.8926C75.8818 11.6641 75.6094 11.4854 75.2695 11.3564C74.9355 11.2217 74.5488 11.1543 74.1094 11.1543C73.6699 11.1543 73.2861 11.2188 72.958 11.3477C72.6357 11.4766 72.3838 11.6582 72.2021 11.8926C72.0205 12.1211 71.9297 12.3936 71.9297 12.71V12.7188C71.9297 13.1289 72.0938 13.4629 72.4219 13.7207C72.7559 13.9785 73.2949 14.1836 74.0391 14.3359L75.3838 14.6172C76.2744 14.7988 77.001 15.0449 77.5635 15.3555C78.1318 15.666 78.5508 16.0557 78.8203 16.5244C79.0957 16.9932 79.2334 17.5557 79.2334 18.2119V18.2207C79.2334 19.0586 79.0254 19.7852 78.6094 20.4004C78.1992 21.0098 77.6104 21.4814 76.8428 21.8154C76.0811 22.1494 75.1729 22.3164 74.1182 22.3164ZM84.1816 18.3262L84.085 15.0215H84.498L89.1826 9.31738H92.127L87.3457 15.0742L85.8164 16.3486L84.1816 18.3262ZM81.6943 22V9.31738H84.3486V22H81.6943ZM89.2705 22L85.4385 16.375L87.3457 14.6348L92.4609 22H89.2705ZM98.8945 8.6582L95.2646 25.1992H92.9004L96.5303 8.6582H98.8945ZM100.503 22V9.31738H103.157V14.4678H108.87V9.31738H111.524V22H108.87V16.6562H103.157V22H100.503ZM119.962 22.3164C118.737 22.3164 117.68 22.0498 116.789 21.5166C115.898 20.9775 115.21 20.21 114.724 19.2139C114.243 18.2178 114.003 17.0342 114.003 15.6631V15.6455C114.003 14.2744 114.243 13.0938 114.724 12.1035C115.21 11.1074 115.896 10.3428 116.78 9.80957C117.671 9.27051 118.729 9.00098 119.953 9.00098C120.961 9.00098 121.863 9.19727 122.66 9.58984C123.463 9.98242 124.11 10.5244 124.603 11.2158C125.095 11.9072 125.382 12.6982 125.464 13.5889V13.7031H122.88L122.871 13.6416C122.783 13.1611 122.604 12.7422 122.335 12.3848C122.065 12.0273 121.729 11.749 121.324 11.5498C120.92 11.3506 120.463 11.251 119.953 11.251C119.291 11.251 118.717 11.4297 118.23 11.7871C117.75 12.1387 117.378 12.6426 117.114 13.2988C116.851 13.9551 116.719 14.7373 116.719 15.6455V15.6631C116.719 16.5654 116.851 17.3477 117.114 18.0098C117.378 18.6719 117.75 19.1816 118.23 19.5391C118.717 19.8906 119.294 20.0664 119.962 20.0664C120.472 20.0664 120.929 19.9756 121.333 19.7939C121.737 19.6064 122.071 19.3457 122.335 19.0117C122.599 18.6719 122.777 18.2764 122.871 17.8252L122.889 17.7461H125.473L125.464 17.8516C125.376 18.7363 125.089 19.5156 124.603 20.1895C124.116 20.8574 123.475 21.3789 122.678 21.7539C121.887 22.1289 120.981 22.3164 119.962 22.3164ZM130.377 18.3262L130.28 15.0215H130.693L135.378 9.31738H138.322L133.541 15.0742L132.012 16.3486L130.377 18.3262ZM127.89 22V9.31738H130.544V22H127.89ZM135.466 22L131.634 16.375L133.541 14.6348L138.656 22H135.466ZM145.204 22V9.31738H147.858V14.4678H153.571V9.31738H156.226V22H153.571V16.6562H147.858V22H145.204ZM163.266 22.2021C162.287 22.2021 161.443 22 160.734 21.5957C160.031 21.1914 159.489 20.6143 159.108 19.8643C158.728 19.1084 158.537 18.2148 158.537 17.1836V17.1748C158.537 16.1494 158.725 15.2588 159.1 14.5029C159.48 13.7471 160.017 13.1641 160.708 12.7539C161.405 12.3379 162.223 12.1299 163.16 12.1299C164.098 12.1299 164.909 12.332 165.595 12.7363C166.28 13.1348 166.808 13.6973 167.177 14.4238C167.546 15.1504 167.73 16.0029 167.73 16.9814V17.7812H159.82V16.1729H166.5L165.296 17.6934V16.665C165.296 16.085 165.208 15.6016 165.032 15.2148C164.856 14.8281 164.61 14.5381 164.294 14.3447C163.983 14.1455 163.62 14.0459 163.204 14.0459C162.788 14.0459 162.422 14.1484 162.105 14.3535C161.789 14.5527 161.537 14.8486 161.35 15.2412C161.168 15.6279 161.077 16.1025 161.077 16.665V17.7021C161.077 18.2412 161.168 18.7041 161.35 19.0908C161.531 19.4775 161.789 19.7734 162.123 19.9785C162.457 20.1836 162.855 20.2861 163.318 20.2861C163.693 20.2861 164.013 20.2305 164.276 20.1191C164.54 20.0078 164.751 19.8789 164.909 19.7324C165.073 19.5801 165.185 19.4424 165.243 19.3193L165.27 19.2666L167.651 19.2578L167.634 19.3545C167.558 19.6592 167.42 19.9785 167.221 20.3125C167.021 20.6406 166.746 20.9482 166.395 21.2354C166.049 21.5225 165.615 21.7568 165.094 21.9385C164.578 22.1143 163.969 22.2021 163.266 22.2021ZM169.875 22V8.6582H172.441V22H169.875ZM175.061 25.1992V12.332H177.627V13.8438H177.776C177.946 13.4922 178.169 13.1934 178.444 12.9473C178.726 12.7012 179.054 12.5137 179.429 12.3848C179.804 12.25 180.22 12.1826 180.677 12.1826C181.479 12.1826 182.174 12.3848 182.76 12.7891C183.346 13.1875 183.797 13.7588 184.113 14.5029C184.436 15.2412 184.597 16.126 184.597 17.1572V17.1748C184.597 18.2119 184.438 19.1025 184.122 19.8467C183.812 20.5908 183.363 21.1621 182.777 21.5605C182.191 21.959 181.491 22.1582 180.677 22.1582C180.231 22.1582 179.818 22.0908 179.438 21.9561C179.062 21.8154 178.731 21.6191 178.444 21.3672C178.163 21.1094 177.94 20.8047 177.776 20.4531H177.627V25.1992H175.061ZM179.798 20.0312C180.255 20.0312 180.645 19.917 180.967 19.6885C181.295 19.4541 181.547 19.123 181.723 18.6953C181.898 18.2676 181.986 17.7607 181.986 17.1748V17.1572C181.986 16.5654 181.898 16.0557 181.723 15.6279C181.547 15.2002 181.295 14.875 180.967 14.6523C180.639 14.4238 180.249 14.3096 179.798 14.3096C179.353 14.3096 178.963 14.4238 178.629 14.6523C178.301 14.8809 178.046 15.2061 177.864 15.6279C177.688 16.0498 177.601 16.5596 177.601 17.1572V17.1748C177.601 17.7607 177.688 18.2676 177.864 18.6953C178.046 19.123 178.301 19.4541 178.629 19.6885C178.963 19.917 179.353 20.0312 179.798 20.0312ZM190.916 22.2021C189.938 22.2021 189.094 22 188.385 21.5957C187.682 21.1914 187.14 20.6143 186.759 19.8643C186.378 19.1084 186.188 18.2148 186.188 17.1836V17.1748C186.188 16.1494 186.375 15.2588 186.75 14.5029C187.131 13.7471 187.667 13.1641 188.358 12.7539C189.056 12.3379 189.873 12.1299 190.811 12.1299C191.748 12.1299 192.56 12.332 193.245 12.7363C193.931 13.1348 194.458 13.6973 194.827 14.4238C195.196 15.1504 195.381 16.0029 195.381 16.9814V17.7812H187.471V16.1729H194.15L192.946 17.6934V16.665C192.946 16.085 192.858 15.6016 192.683 15.2148C192.507 14.8281 192.261 14.5381 191.944 14.3447C191.634 14.1455 191.271 14.0459 190.854 14.0459C190.438 14.0459 190.072 14.1484 189.756 14.3535C189.439 14.5527 189.188 14.8486 189 15.2412C188.818 15.6279 188.728 16.1025 188.728 16.665V17.7021C188.728 18.2412 188.818 18.7041 189 19.0908C189.182 19.4775 189.439 19.7734 189.773 19.9785C190.107 20.1836 190.506 20.2861 190.969 20.2861C191.344 20.2861 191.663 20.2305 191.927 20.1191C192.19 20.0078 192.401 19.8789 192.56 19.7324C192.724 19.5801 192.835 19.4424 192.894 19.3193L192.92 19.2666L195.302 19.2578L195.284 19.3545C195.208 19.6592 195.07 19.9785 194.871 20.3125C194.672 20.6406 194.396 20.9482 194.045 21.2354C193.699 21.5225 193.266 21.7568 192.744 21.9385C192.229 22.1143 191.619 22.2021 190.916 22.2021ZM197.438 22V12.332H200.004V13.8525H200.153C200.312 13.3193 200.599 12.9092 201.015 12.6221C201.437 12.3291 201.958 12.1826 202.579 12.1826C202.755 12.1826 202.925 12.1943 203.089 12.2178C203.259 12.2354 203.405 12.2617 203.528 12.2969V14.5381C203.341 14.4912 203.15 14.4561 202.957 14.4326C202.764 14.4092 202.564 14.3975 202.359 14.3975C201.879 14.3975 201.46 14.4854 201.103 14.6611C200.751 14.8369 200.479 15.0889 200.285 15.417C200.098 15.7451 200.004 16.1377 200.004 16.5947V22H197.438ZM214.585 22.3164C213.577 22.3164 212.701 22.167 211.957 21.8682C211.213 21.5635 210.627 21.1357 210.199 20.585C209.771 20.0283 209.531 19.3721 209.479 18.6162L209.47 18.4844H212.036L212.045 18.5635C212.08 18.8857 212.209 19.167 212.432 19.4072C212.66 19.6416 212.965 19.8262 213.346 19.9609C213.727 20.0957 214.163 20.1631 214.655 20.1631C215.13 20.1631 215.546 20.0928 215.903 19.9521C216.261 19.8115 216.539 19.6182 216.738 19.3721C216.943 19.1201 217.046 18.833 217.046 18.5107V18.502C217.046 18.0859 216.876 17.752 216.536 17.5C216.202 17.248 215.64 17.04 214.849 16.876L213.513 16.6035C212.2 16.334 211.242 15.8945 210.639 15.2852C210.041 14.6699 209.742 13.8789 209.742 12.9121V12.9033C209.742 12.1182 209.95 11.4326 210.366 10.8467C210.782 10.2607 211.354 9.80664 212.08 9.48438C212.807 9.16211 213.639 9.00098 214.576 9.00098C215.561 9.00098 216.404 9.15918 217.107 9.47559C217.816 9.79199 218.37 10.2285 218.769 10.7852C219.167 11.3418 219.393 11.9746 219.445 12.6836L219.454 12.7979H216.949L216.932 12.6924C216.885 12.3877 216.759 12.1211 216.554 11.8926C216.349 11.6641 216.076 11.4854 215.736 11.3564C215.402 11.2217 215.016 11.1543 214.576 11.1543C214.137 11.1543 213.753 11.2188 213.425 11.3477C213.103 11.4766 212.851 11.6582 212.669 11.8926C212.487 12.1211 212.396 12.3936 212.396 12.71V12.7188C212.396 13.1289 212.561 13.4629 212.889 13.7207C213.223 13.9785 213.762 14.1836 214.506 14.3359L215.851 14.6172C216.741 14.7988 217.468 15.0449 218.03 15.3555C218.599 15.666 219.018 16.0557 219.287 16.5244C219.562 16.9932 219.7 17.5557 219.7 18.2119V18.2207C219.7 19.0586 219.492 19.7852 219.076 20.4004C218.666 21.0098 218.077 21.4814 217.31 21.8154C216.548 22.1494 215.64 22.3164 214.585 22.3164ZM221.924 22V12.332H224.49V22H221.924ZM223.207 10.8643C222.814 10.8643 222.475 10.7266 222.188 10.4512C221.906 10.1699 221.766 9.83301 221.766 9.44043C221.766 9.04199 221.906 8.70508 222.188 8.42969C222.475 8.1543 222.814 8.0166 223.207 8.0166C223.605 8.0166 223.945 8.1543 224.227 8.42969C224.508 8.70508 224.648 9.04199 224.648 9.44043C224.648 9.83301 224.508 10.1699 224.227 10.4512C223.945 10.7266 223.605 10.8643 223.207 10.8643ZM231.038 22.0439C229.872 22.0439 229.031 21.8389 228.516 21.4287C228 21.0127 227.742 20.333 227.742 19.3896V14.2656H226.257V12.332H227.742V10.0205H230.335V12.332H232.321V14.2656H230.335V18.8096C230.335 19.249 230.432 19.5684 230.625 19.7676C230.824 19.9668 231.141 20.0664 231.574 20.0664C231.738 20.0664 231.873 20.0635 231.979 20.0576C232.084 20.0518 232.198 20.043 232.321 20.0312V21.9297C232.163 21.959 231.973 21.9854 231.75 22.0088C231.527 22.0322 231.29 22.0439 231.038 22.0439ZM238.605 22.2021C237.627 22.2021 236.783 22 236.074 21.5957C235.371 21.1914 234.829 20.6143 234.448 19.8643C234.067 19.1084 233.877 18.2148 233.877 17.1836V17.1748C233.877 16.1494 234.064 15.2588 234.439 14.5029C234.82 13.7471 235.356 13.1641 236.048 12.7539C236.745 12.3379 237.562 12.1299 238.5 12.1299C239.438 12.1299 240.249 12.332 240.935 12.7363C241.62 13.1348 242.147 13.6973 242.517 14.4238C242.886 15.1504 243.07 16.0029 243.07 16.9814V17.7812H235.16V16.1729H241.84L240.636 17.6934V16.665C240.636 16.085 240.548 15.6016 240.372 15.2148C240.196 14.8281 239.95 14.5381 239.634 14.3447C239.323 14.1455 238.96 14.0459 238.544 14.0459C238.128 14.0459 237.762 14.1484 237.445 14.3535C237.129 14.5527 236.877 14.8486 236.689 15.2412C236.508 15.6279 236.417 16.1025 236.417 16.665V17.7021C236.417 18.2412 236.508 18.7041 236.689 19.0908C236.871 19.4775 237.129 19.7734 237.463 19.9785C237.797 20.1836 238.195 20.2861 238.658 20.2861C239.033 20.2861 239.353 20.2305 239.616 20.1191C239.88 20.0078 240.091 19.8789 240.249 19.7324C240.413 19.5801 240.524 19.4424 240.583 19.3193L240.609 19.2666L242.991 19.2578L242.974 19.3545C242.897 19.6592 242.76 19.9785 242.561 20.3125C242.361 20.6406 242.086 20.9482 241.734 21.2354C241.389 21.5225 240.955 21.7568 240.434 21.9385C239.918 22.1143 239.309 22.2021 238.605 22.2021Z" fill="#333333"/>
<defs>
<radialGradient id="paint0_radial_785_8" cx="0" cy="0" r="1" gradientTransform="matrix(23.774 10.2917 -1.19755 11.8869 11.6935 4.02083)" gradientUnits="userSpaceOnUse">
<stop stop-color="white"/>
<stop offset="1" stop-color="white" stop-opacity="0"/>
</radialGradient>
<radialGradient id="paint1_radial_785_8" cx="0" cy="0" r="1" gradientTransform="matrix(23.774 10.2917 -1.19755 11.8869 32.6935 4.02083)" gradientUnits="userSpaceOnUse">
<stop stop-color="white"/>
<stop offset="1" stop-color="white" stop-opacity="0"/>
</radialGradient>
<radialGradient id="paint2_radial_785_8" cx="0" cy="0" r="1" gradientTransform="matrix(8.70875 10.2996 -0.438679 11.8961 44.9562 4.00514)" gradientUnits="userSpaceOnUse">
<stop stop-color="white"/>
<stop offset="1" stop-color="white" stop-opacity="0"/>
</radialGradient>
</defs>
</svg>
