<svg width="86" height="86" viewBox="0 0 86 86" fill="none" xmlns="http://www.w3.org/2000/svg">
<g clip-path="url(#clip0_790_93)">
<g filter="url(#filter0_d_790_93)">
<rect x="3" width="80" height="80" rx="15" fill="#333333"/>
<rect x="3.5" y="0.5" width="79" height="79" rx="14.5" stroke="#D5D5D5"/>
</g>
<circle cx="29.5" cy="39.5" r="9.5" fill="white"/>
<circle cx="29.5" cy="39.5" r="9.5" fill="url(#paint0_radial_790_93)" fill-opacity="0.2"/>
<path d="M41 30H50.5C55.7467 30 60 34.2533 60 39.5V39.5C60 44.7467 55.7467 49 50.5 49H41V30Z" fill="white"/>
<path d="M41 30H50.5C55.7467 30 60 34.2533 60 39.5V39.5C60 44.7467 55.7467 49 50.5 49H41V30Z" fill="url(#paint1_radial_790_93)" fill-opacity="0.2"/>
<path d="M47 36.7143C47 36.3198 47.3198 36 47.7143 36H48.5C50.433 36 52 37.567 52 39.5V39.5C52 41.433 50.433 43 48.5 43H47.7143C47.3198 43 47 42.6802 47 42.2857V36.7143Z" fill="#FF883D"/>
<path d="M63.8779 30.0049C64.0519 29.9793 64.2272 29.9801 64.3994 30.0001H64.999C66.1036 30.0001 66.999 30.8955 66.999 32.0001V47.0001C66.9988 48.1044 66.1035 49.0001 64.999 49.0001H63.999C62.8946 49 61.9993 48.1044 61.999 47.0001V37.5346C61.999 36.6538 61.3016 35.9187 60.8457 35.1651L60.3281 34.3096C59.7564 33.3646 60.059 32.1353 61.0039 31.5635L61.2467 31.4165C62.1055 30.8965 62.8757 30.0648 63.8779 30.0049Z" fill="white"/>
<path d="M63.8779 30.0049C64.0519 29.9793 64.2271 29.9801 64.3994 30.0001H64.999C66.1036 30.0001 66.999 30.8955 66.999 32.0001V47.0001C66.9988 48.1044 66.1034 49.0001 64.999 49.0001H61.999V36.0479C61.5341 35.9128 61.1161 35.612 60.8457 35.1651L59.293 32.5987L62.541 30.6329C62.8801 30.2713 63.351 30.0364 63.8779 30.0049Z" fill="url(#paint2_radial_790_93)" fill-opacity="0.2"/>
<rect x="3" width="80" height="80" fill="url(#paint3_radial_790_93)" fill-opacity="0.2"/>
</g>
<defs>
<filter id="filter0_d_790_93" x="-1" y="0" width="88" height="88" filterUnits="userSpaceOnUse" color-interpolation-filters="sRGB">
<feFlood flood-opacity="0" result="BackgroundImageFix"/>
<feColorMatrix in="SourceAlpha" type="matrix" values="0 0 0 0 0 0 0 0 0 0 0 0 0 0 0 0 0 0 127 0" result="hardAlpha"/>
<feOffset dy="4"/>
<feGaussianBlur stdDeviation="2"/>
<feComposite in2="hardAlpha" operator="out"/>
<feColorMatrix type="matrix" values="0 0 0 0 0 0 0 0 0 0 0 0 0 0 0 0 0 0 0.25 0"/>
<feBlend mode="normal" in2="BackgroundImageFix" result="effect1_dropShadow_790_93"/>
<feBlend mode="normal" in="SourceGraphic" in2="effect1_dropShadow_790_93" result="shape"/>
</filter>
<radialGradient id="paint0_radial_790_93" cx="0" cy="0" r="1" gradientTransform="matrix(23.774 10.2917 -1.19755 11.8869 30.6935 28.0208)" gradientUnits="userSpaceOnUse">
<stop stop-color="white"/>
<stop offset="1" stop-color="white" stop-opacity="0"/>
</radialGradient>
<radialGradient id="paint1_radial_790_93" cx="0" cy="0" r="1" gradientTransform="matrix(23.774 10.2917 -1.19755 11.8869 51.6935 28.0208)" gradientUnits="userSpaceOnUse">
<stop stop-color="white"/>
<stop offset="1" stop-color="white" stop-opacity="0"/>
</radialGradient>
<radialGradient id="paint2_radial_790_93" cx="0" cy="0" r="1" gradientTransform="matrix(9.64229 10.2996 -0.485704 11.8961 63.6301 28.0047)" gradientUnits="userSpaceOnUse">
<stop stop-color="white"/>
<stop offset="1" stop-color="white" stop-opacity="0"/>
</radialGradient>
<radialGradient id="paint3_radial_790_93" cx="0" cy="0" r="1" gradientTransform="matrix(100.101 43.3333 -5.04231 50.0503 48.0252 -8.33333)" gradientUnits="userSpaceOnUse">
<stop stop-color="white"/>
<stop offset="1" stop-color="white" stop-opacity="0"/>
</radialGradient>
<clipPath id="clip0_790_93">
<rect width="86" height="86" fill="white"/>
</clipPath>
</defs>
</svg>
