<svg width="144" height="94" viewBox="0 0 144 94" fill="none" xmlns="http://www.w3.org/2000/svg">
<path d="M30.6458 65H34.8751L42.536 86.3684H38.6378L37.2832 82.5832H28.2527L26.8982 86.3684H23L30.6458 65ZM29.5923 78.8589H35.9287L32.7529 70.0521L29.5923 78.8589Z" fill="url(#paint0_linear_457_844)"/>
<path d="M55.2001 71.1053H58.8725V86.6584C58.8725 87.7574 58.6517 88.7546 58.2103 89.65C57.7688 90.5556 57.1667 91.3289 56.4042 91.97C55.6416 92.6212 54.7686 93.1198 53.7853 93.4658C52.802 93.8219 51.7685 94 50.6848 94C49.6313 94 48.6179 93.7812 47.6446 93.3437C46.6713 92.9061 45.8084 92.3058 45.0558 91.5426C44.3133 90.7896 43.7464 89.9298 43.3551 88.9632L46.7114 87.4216C46.9121 87.9812 47.2131 88.4696 47.6145 88.8868C48.0259 89.3142 48.4974 89.6449 49.0292 89.8789C49.561 90.1232 50.1129 90.2453 50.6848 90.2453C51.2668 90.2453 51.8237 90.1639 52.3555 90.0011C52.8973 89.8382 53.384 89.5991 53.8154 89.2837C54.2469 88.9784 54.583 88.6019 54.8238 88.1542C55.0747 87.7167 55.2001 87.2181 55.2001 86.6584V84.5063C54.7285 85.1779 54.1365 85.7223 53.4241 86.1395C52.7117 86.5567 51.8889 86.7653 50.9558 86.7653C49.8721 86.7653 48.8587 86.5567 47.9155 86.1395C46.9723 85.7223 46.1395 85.1474 45.417 84.4147C44.7046 83.6719 44.1427 82.8172 43.7314 81.8505C43.33 80.8839 43.1293 79.846 43.1293 78.7368C43.1293 77.6277 43.33 76.5898 43.7314 75.6232C44.1427 74.6565 44.7046 73.8068 45.417 73.0742C46.1395 72.3314 46.9723 71.7514 47.9155 71.3342C48.8587 70.917 49.8721 70.7084 50.9558 70.7084C51.8889 70.7084 52.7117 70.917 53.4241 71.3342C54.1365 71.7412 54.7285 72.2805 55.2001 72.9521V71.1053ZM51.0009 83.1784C51.7735 83.1784 52.4558 82.98 53.0478 82.5832C53.6499 82.1761 54.1214 81.6368 54.4626 80.9653C54.8038 80.2835 54.9743 79.5407 54.9743 78.7368C54.9743 77.9228 54.7987 77.18 54.4475 76.5084C54.1064 75.8368 53.6348 75.2975 53.0328 74.8905C52.4408 74.4835 51.7635 74.28 51.0009 74.28C50.2484 74.28 49.561 74.4835 48.9389 74.8905C48.3168 75.2874 47.8202 75.8216 47.4489 76.4932C47.0777 77.1647 46.892 77.9126 46.892 78.7368C46.892 79.5611 47.0777 80.3089 47.4489 80.9805C47.8202 81.6521 48.3168 82.1863 48.9389 82.5832C49.561 82.98 50.2484 83.1784 51.0009 83.1784Z" fill="url(#paint1_linear_457_844)"/>
<path d="M68.7628 86.7653C67.3781 86.7653 66.1138 86.404 64.97 85.6816C63.8361 84.9591 62.9281 83.9874 62.2458 82.7663C61.5735 81.5453 61.2374 80.197 61.2374 78.7216C61.2374 77.6125 61.433 76.5746 61.8243 75.6079C62.2157 74.6311 62.7525 73.7763 63.4348 73.0437C64.1271 72.3009 64.9298 71.7209 65.8429 71.3037C66.756 70.8865 67.7293 70.6779 68.7628 70.6779C69.9367 70.6779 71.0104 70.9323 71.9837 71.4411C72.967 71.9396 73.7998 72.6265 74.4821 73.5016C75.1644 74.3767 75.6611 75.3739 75.9721 76.4932C76.2832 77.6125 76.3534 78.7826 76.1828 80.0037H65.1807C65.3211 80.5735 65.5519 81.0874 65.873 81.5453C66.1941 81.993 66.6005 82.3542 67.0921 82.6289C67.5838 82.8935 68.1407 83.0309 68.7628 83.041C69.4049 83.0512 69.9869 82.8986 70.5087 82.5832C71.0405 82.2575 71.482 81.82 71.8331 81.2705L75.5808 82.1558C74.9687 83.5091 74.0557 84.6182 72.8416 85.4832C71.6275 86.3379 70.2679 86.7653 68.7628 86.7653ZM65.0603 77.2105H72.4653C72.3549 76.6 72.1191 76.0505 71.7579 75.5621C71.4067 75.0635 70.9702 74.6667 70.4485 74.3716C69.9267 74.0765 69.3648 73.9289 68.7628 73.9289C68.1607 73.9289 67.6039 74.0765 67.0921 74.3716C66.5804 74.6565 66.1439 75.0482 65.7827 75.5468C65.4315 76.0353 65.1907 76.5898 65.0603 77.2105Z" fill="url(#paint2_linear_457_844)"/>
<path d="M92.4182 76.7221V86.3684H88.7458V77.6989C88.7458 77.0986 88.6003 76.5542 88.3093 76.0658C88.0184 75.5672 87.627 75.1754 87.1354 74.8905C86.6538 74.5954 86.1169 74.4479 85.5249 74.4479C84.9329 74.4479 84.3911 74.5954 83.8994 74.8905C83.4178 75.1754 83.0315 75.5672 82.7405 76.0658C82.4596 76.5542 82.3191 77.0986 82.3191 77.6989V86.3684H78.6467L78.6317 71.1053H82.3041L82.3191 72.4637C82.8308 71.9142 83.4429 71.4818 84.1553 71.1663C84.8677 70.8407 85.6353 70.6779 86.4581 70.6779C87.5518 70.6779 88.5502 70.9526 89.4532 71.5021C90.3563 72.0414 91.0737 72.7689 91.6055 73.6847C92.1473 74.5904 92.4182 75.6028 92.4182 76.7221Z" fill="url(#paint3_linear_457_844)"/>
<path d="M102.461 65H106.69L114.351 86.3684H110.453L109.098 82.5832H100.068L98.713 86.3684H94.8148L102.461 65ZM101.407 78.8589H107.743L104.568 70.0521L101.407 78.8589Z" fill="url(#paint4_linear_457_844)"/>
<path d="M117.328 86.3684V65H121V86.3684H117.328Z" fill="url(#paint5_linear_457_844)"/>
<path d="M72.498 46.6667C68.8314 48.7917 64.5397 50 59.998 50C46.2064 50 34.998 38.7917 34.998 25C34.998 11.2083 46.2064 0 59.998 0C64.5397 0 68.8314 1.20833 72.498 3.33333C65.0397 7.66667 59.998 15.75 59.998 25C59.998 34.2917 65.0397 42.3333 72.498 46.6667Z" fill="url(#paint6_linear_457_844)"/>
<path d="M72.498 46.6667C76.1647 48.7917 80.4564 50 84.9981 50C98.7897 50 109.998 38.7917 109.998 25C109.998 11.2083 98.7897 0 84.9981 0C80.4564 0 76.1647 1.20833 72.498 3.33333C79.9564 7.66667 84.9981 15.75 84.9981 25C84.9981 34.2917 79.9564 42.3333 72.498 46.6667Z" fill="url(#paint7_linear_457_844)"/>
<defs>
<linearGradient id="paint0_linear_457_844" x1="73.4497" y1="63.1087" x2="81.7254" y2="93.8012" gradientUnits="userSpaceOnUse">
<stop stop-color="white" stop-opacity="0.8"/>
<stop offset="1" stop-color="white"/>
</linearGradient>
<linearGradient id="paint1_linear_457_844" x1="73.4497" y1="63.1087" x2="81.7254" y2="93.8012" gradientUnits="userSpaceOnUse">
<stop stop-color="white" stop-opacity="0.8"/>
<stop offset="1" stop-color="white"/>
</linearGradient>
<linearGradient id="paint2_linear_457_844" x1="73.4497" y1="63.1087" x2="81.7254" y2="93.8012" gradientUnits="userSpaceOnUse">
<stop stop-color="white" stop-opacity="0.8"/>
<stop offset="1" stop-color="white"/>
</linearGradient>
<linearGradient id="paint3_linear_457_844" x1="73.4497" y1="63.1087" x2="81.7254" y2="93.8012" gradientUnits="userSpaceOnUse">
<stop stop-color="white" stop-opacity="0.8"/>
<stop offset="1" stop-color="white"/>
</linearGradient>
<linearGradient id="paint4_linear_457_844" x1="73.4497" y1="63.1087" x2="81.7254" y2="93.8012" gradientUnits="userSpaceOnUse">
<stop stop-color="white" stop-opacity="0.8"/>
<stop offset="1" stop-color="white"/>
</linearGradient>
<linearGradient id="paint5_linear_457_844" x1="73.4497" y1="63.1087" x2="81.7254" y2="93.8012" gradientUnits="userSpaceOnUse">
<stop stop-color="white" stop-opacity="0.8"/>
<stop offset="1" stop-color="white"/>
</linearGradient>
<linearGradient id="paint6_linear_457_844" x1="73.6075" y1="-3.26087" x2="98.7953" y2="38.2043" gradientUnits="userSpaceOnUse">
<stop stop-color="white" stop-opacity="0.8"/>
<stop offset="1" stop-color="white"/>
</linearGradient>
<linearGradient id="paint7_linear_457_844" x1="73.6075" y1="-3.26087" x2="98.7953" y2="38.2043" gradientUnits="userSpaceOnUse">
<stop stop-color="white" stop-opacity="0.8"/>
<stop offset="1" stop-color="white"/>
</linearGradient>
</defs>
</svg>
