<svg width="231" height="278" viewBox="0 0 231 278" fill="none" xmlns="http://www.w3.org/2000/svg">
<g clip-path="url(#clip0_6045_471)">
<g filter="url(#filter0_dddd_6045_471)">
<path d="M69.142 22.8175C81.4382 16.1902 95.1477 8.23047 115.5 8.23047C135.852 8.23047 149.562 16.1902 161.858 22.8175C174.154 29.4448 185.426 35.1603 205.955 35.1603H215V44.137C215 113.671 191.397 158.869 167.511 186.08C143.626 213.29 118.892 223.108 118.892 223.108L115.5 224.23L112.108 223.108C112.108 223.108 87.3743 213.08 63.4886 185.799C39.603 158.519 16 113.425 16 44.137V35.1603H25.0455C45.6804 35.1603 56.8459 29.4448 69.142 22.8175Z" fill="#8EA4BB"/>
</g>
</g>
<defs>
<filter id="filter0_dddd_6045_471" x="0" y="0.000468731" width="231" height="248" filterUnits="userSpaceOnUse" color-interpolation-filters="sRGB">
<feFlood flood-opacity="0" result="BackgroundImageFix"/>
<feColorMatrix in="SourceAlpha" type="matrix" values="0 0 0 0 0 0 0 0 0 0 0 0 0 0 0 0 0 0 127 0" result="hardAlpha"/>
<feOffset dy="7.77"/>
<feGaussianBlur stdDeviation="8"/>
<feColorMatrix type="matrix" values="0 0 0 0 0 0 0 0 0 0 0 0 0 0 0 0 0 0 0.0597 0"/>
<feBlend mode="normal" in2="BackgroundImageFix" result="effect1_dropShadow_6045_471"/>
<feColorMatrix in="SourceAlpha" type="matrix" values="0 0 0 0 0 0 0 0 0 0 0 0 0 0 0 0 0 0 127 0" result="hardAlpha"/>
<feOffset dy="3"/>
<feGaussianBlur stdDeviation="1.5"/>
<feComposite in2="hardAlpha" operator="out"/>
<feColorMatrix type="matrix" values="0 0 0 0 0 0 0 0 0 0 0 0 0 0 0 0 0 0 0.1 0"/>
<feBlend mode="normal" in2="effect1_dropShadow_6045_471" result="effect2_dropShadow_6045_471"/>
<feColorMatrix in="SourceAlpha" type="matrix" values="0 0 0 0 0 0 0 0 0 0 0 0 0 0 0 0 0 0 127 0" result="hardAlpha"/>
<feOffset dy="-4"/>
<feComposite in2="hardAlpha" operator="out"/>
<feColorMatrix type="matrix" values="0 0 0 0 0 0 0 0 0 0 0 0 0 0 0 0 0 0 0.05 0"/>
<feBlend mode="normal" in2="effect2_dropShadow_6045_471" result="effect3_dropShadow_6045_471"/>
<feColorMatrix in="SourceAlpha" type="matrix" values="0 0 0 0 0 0 0 0 0 0 0 0 0 0 0 0 0 0 127 0" result="hardAlpha"/>
<feOffset dy="4"/>
<feComposite in2="hardAlpha" operator="out"/>
<feColorMatrix type="matrix" values="0 0 0 0 1 0 0 0 0 1 0 0 0 0 1 0 0 0 0.6 0"/>
<feBlend mode="normal" in2="effect3_dropShadow_6045_471" result="effect4_dropShadow_6045_471"/>
<feBlend mode="normal" in="SourceGraphic" in2="effect4_dropShadow_6045_471" result="shape"/>
</filter>
<clipPath id="clip0_6045_471">
<rect width="231" height="278" fill="white"/>
</clipPath>
</defs>
</svg>
