<svg width="92" height="92" viewBox="0 0 92 92" fill="none" xmlns="http://www.w3.org/2000/svg">
<g clip-path="url(#clip0_6045_414)">
<path d="M84 0H8C3.58172 0 0 3.58172 0 8V84C0 88.4183 3.58172 92 8 92H84C88.4183 92 92 88.4183 92 84V8C92 3.58172 88.4183 0 84 0Z" fill="#F5F5F5"/>
<path d="M84 0H8C3.58172 0 0 3.58172 0 8V84C0 88.4183 3.58172 92 8 92H84C88.4183 92 92 88.4183 92 84V8C92 3.58172 88.4183 0 84 0Z" fill="#8EA4BB"/>
</g>
<defs>
<clipPath id="clip0_6045_414">
<rect width="92" height="92" fill="white"/>
</clipPath>
</defs>
</svg>
