<svg width="204" height="70" viewBox="0 0 204 70" fill="none" xmlns="http://www.w3.org/2000/svg">
<g clip-path="url(#clip0_6045_441)">
<path d="M196 0H8C3.58172 0 0 3.58172 0 8V62C0 66.4183 3.58172 70 8 70H196C200.418 70 204 66.4183 204 62V8C204 3.58172 200.418 0 196 0Z" fill="#272727"/>
<path d="M196 0H8C3.58172 0 0 3.58172 0 8V62C0 66.4183 3.58172 70 8 70H196C200.418 70 204 66.4183 204 62V8C204 3.58172 200.418 0 196 0Z" fill="#8EA4BB"/>
</g>
<defs>
<clipPath id="clip0_6045_441">
<rect width="204" height="70" fill="white"/>
</clipPath>
</defs>
</svg>
