<svg width="104" height="104" viewBox="0 0 104 104" fill="none" xmlns="http://www.w3.org/2000/svg">
<g clip-path="url(#clip0_6045_431)">
<path d="M96 0H8C3.58172 0 0 3.58172 0 8V96C0 100.418 3.58172 104 8 104H96C100.418 104 104 100.418 104 96V8C104 3.58172 100.418 0 96 0Z" fill="#F5F5F5"/>
<path d="M96 0H8C3.58172 0 0 3.58172 0 8V96C0 100.418 3.58172 104 8 104H96C100.418 104 104 100.418 104 96V8C104 3.58172 100.418 0 96 0Z" fill="#8EA4BB"/>
</g>
<defs>
<clipPath id="clip0_6045_431">
<rect width="104" height="104" fill="white"/>
</clipPath>
</defs>
</svg>
